<svg xmlns="http://www.w3.org/2000/svg" viewBox="0 0 400 260" fill="none" role="img" aria-label="Daily plan with AI band-score feedback">
  <rect width="400" height="260" fill="#F8FAFC"/>
  <rect x="16" y="16" width="368" height="32" rx="8" fill="#FFFFFF" stroke="#E2E8F0"/>
  <rect x="28" y="26" width="120" height="12" rx="4" fill="#0D9488"/>

  <!-- Essay card -->
  <rect x="16" y="64" width="200" height="180" rx="12" fill="#FFFFFF" stroke="#E2E8F0" stroke-width="2"/>
  <rect x="32" y="80" width="100" height="12" rx="4" fill="#0F172A"/>
  <g fill="#CBD5E1">
    <rect x="32" y="108" width="168" height="8" rx="3"/>
    <rect x="32" y="124" width="160" height="8" rx="3"/>
    <rect x="32" y="140" width="172" height="8" rx="3"/>
    <rect x="32" y="156" width="148" height="8" rx="3"/>
    <rect x="32" y="172" width="168" height="8" rx="3"/>
    <rect x="32" y="188" width="120" height="8" rx="3"/>
  </g>
  <rect x="32" y="212" width="80" height="20" rx="6" fill="#0D9488"/>

  <!-- Feedback card -->
  <rect x="232" y="64" width="152" height="180" rx="12" fill="#FFFFFF" stroke="#E2E8F0" stroke-width="2"/>
  <rect x="248" y="80" width="80" height="10" rx="3" fill="#0F172A"/>
  <text x="248" y="120" font-family="system-ui, sans-serif" font-size="20" font-weight="700" fill="#0D9488">Band 7.0</text>
  <!-- Band breakdown bars -->
  <g fill="#CBD5E1">
    <rect x="248" y="138" width="56" height="6" rx="3"/>
    <rect x="248" y="156" width="56" height="6" rx="3"/>
    <rect x="248" y="174" width="56" height="6" rx="3"/>
    <rect x="248" y="192" width="56" height="6" rx="3"/>
  </g>
  <g fill="#0D9488">
    <rect x="248" y="138" width="48" height="6" rx="3"/>
    <rect x="248" y="156" width="40" height="6" rx="3"/>
    <rect x="248" y="174" width="52" height="6" rx="3"/>
    <rect x="248" y="192" width="44" height="6" rx="3"/>
  </g>
  <g fill="#94A3B8">
    <rect x="312" y="136" width="20" height="10" rx="3"/>
    <rect x="312" y="154" width="20" height="10" rx="3"/>
    <rect x="312" y="172" width="20" height="10" rx="3"/>
    <rect x="312" y="190" width="20" height="10" rx="3"/>
  </g>
  <rect x="248" y="216" width="120" height="16" rx="4" fill="#F1F5F9"/>
</svg>
