<svg xmlns="http://www.w3.org/2000/svg" viewBox="0 0 400 260" fill="none" role="img" aria-label="Track readiness across vocab, writing, listening, reading">
  <rect width="400" height="260" fill="#F8FAFC"/>
  <rect x="16" y="16" width="368" height="32" rx="8" fill="#FFFFFF" stroke="#E2E8F0"/>
  <rect x="28" y="26" width="140" height="12" rx="4" fill="#0D9488"/>

  <!-- Readiness track card -->
  <rect x="16" y="64" width="368" height="180" rx="12" fill="#FFFFFF" stroke="#E2E8F0" stroke-width="2"/>
  <rect x="32" y="80" width="120" height="12" rx="4" fill="#0F172A"/>
  <text x="332" y="92" font-family="system-ui, sans-serif" font-size="14" font-weight="600" fill="#0D9488" text-anchor="end">68%</text>

  <!-- Progress bar -->
  <rect x="32" y="104" width="336" height="6" rx="3" fill="#E2E8F0"/>
  <rect x="32" y="104" width="228" height="6" rx="3" fill="#0D9488"/>

  <!-- Step rows -->
  <g>
    <circle cx="44" cy="138" r="6" fill="#10B981"/>
    <rect x="58" y="132" width="120" height="10" rx="3" fill="#0F172A"/>
  </g>
  <g>
    <circle cx="44" cy="166" r="6" fill="#10B981"/>
    <rect x="58" y="160" width="100" height="10" rx="3" fill="#0F172A"/>
  </g>
  <g>
    <circle cx="44" cy="194" r="6" fill="#0D9488"/>
    <circle cx="44" cy="194" r="3" fill="#FFFFFF"/>
    <rect x="58" y="188" width="140" height="10" rx="3" fill="#0F172A"/>
    <rect x="58" y="204" width="80" height="6" rx="3" fill="#94A3B8"/>
    <!-- Skill chips -->
    <rect x="220" y="186" width="40" height="20" rx="6" fill="#F1F5F9"/>
    <rect x="266" y="186" width="40" height="20" rx="6" fill="#F1F5F9"/>
    <rect x="312" y="186" width="40" height="20" rx="6" fill="#F1F5F9"/>
  </g>
  <g>
    <circle cx="44" cy="226" r="6" fill="none" stroke="#94A3B8" stroke-width="2"/>
    <rect x="58" y="220" width="120" height="10" rx="3" fill="#94A3B8"/>
  </g>
</svg>
