<svg xmlns="http://www.w3.org/2000/svg" viewBox="0 0 400 260" fill="none" role="img" aria-label="Daily plan with AI band-score feedback">
  <rect width="400" height="260" fill="#F8FAFC"/>
  <!-- Top bar -->
  <rect x="16" y="16" width="368" height="32" rx="8" fill="#FFFFFF" stroke="#E2E8F0"/>
  <text x="28" y="36" font-family="system-ui, sans-serif" font-size="12" font-weight="600" fill="#0D9488">Kế hoạch hôm nay</text>

  <!-- Essay input card -->
  <rect x="16" y="64" width="200" height="180" rx="12" fill="#FFFFFF" stroke="#E2E8F0" stroke-width="2"/>
  <text x="32" y="84" font-family="system-ui, sans-serif" font-size="11" font-weight="700" fill="#0F172A">Writing Task 2</text>
  <text x="32" y="98" font-family="system-ui, sans-serif" font-size="9" fill="#94A3B8">Nộp bài để AI chấm điểm</text>
  <!-- Essay text lines -->
  <rect x="32" y="108" width="168" height="7" rx="3" fill="#E8F5F4"/>
  <rect x="32" y="120" width="155" height="7" rx="3" fill="#CBD5E1"/>
  <rect x="32" y="132" width="163" height="7" rx="3" fill="#CBD5E1"/>
  <rect x="32" y="144" width="140" height="7" rx="3" fill="#CBD5E1"/>
  <rect x="32" y="156" width="168" height="7" rx="3" fill="#CBD5E1"/>
  <rect x="32" y="168" width="120" height="7" rx="3" fill="#CBD5E1"/>
  <rect x="32" y="180" width="148" height="7" rx="3" fill="#CBD5E1"/>
  <rect x="32" y="192" width="100" height="7" rx="3" fill="#CBD5E1"/>
  <rect x="32" y="212" width="80" height="24" rx="6" fill="#0D9488"/>
  <text x="72" y="228" font-family="system-ui, sans-serif" font-size="10" font-weight="600" fill="#FFFFFF" text-anchor="middle">Nộp bài</text>

  <!-- AI Feedback card -->
  <rect x="232" y="64" width="152" height="180" rx="12" fill="#FFFFFF" stroke="#E2E8F0" stroke-width="2"/>
  <text x="248" y="84" font-family="system-ui, sans-serif" font-size="11" font-weight="700" fill="#0F172A">AI Feedback</text>
  <text x="248" y="120" font-family="system-ui, sans-serif" font-size="20" font-weight="700" fill="#0D9488">Band 7.0</text>
  <!-- Band breakdown with labels -->
  <text x="248" y="142" font-family="system-ui, sans-serif" font-size="9" fill="#64748B">TA</text>
  <rect x="264" y="136" width="52" height="6" rx="3" fill="#E2E8F0"/>
  <rect x="264" y="136" width="46" height="6" rx="3" fill="#0D9488"/>
  <text x="320" y="142" font-family="system-ui, sans-serif" font-size="9" font-weight="600" fill="#0F172A">7.0</text>

  <text x="248" y="160" font-family="system-ui, sans-serif" font-size="9" fill="#64748B">CC</text>
  <rect x="264" y="154" width="52" height="6" rx="3" fill="#E2E8F0"/>
  <rect x="264" y="154" width="38" height="6" rx="3" fill="#0D9488"/>
  <text x="320" y="160" font-family="system-ui, sans-serif" font-size="9" font-weight="600" fill="#0F172A">6.5</text>

  <text x="248" y="178" font-family="system-ui, sans-serif" font-size="9" fill="#64748B">LR</text>
  <rect x="264" y="172" width="52" height="6" rx="3" fill="#E2E8F0"/>
  <rect x="264" y="172" width="50" height="6" rx="3" fill="#0D9488"/>
  <text x="320" y="178" font-family="system-ui, sans-serif" font-size="9" font-weight="600" fill="#0F172A">7.5</text>

  <text x="248" y="196" font-family="system-ui, sans-serif" font-size="9" fill="#64748B">GRA</text>
  <rect x="264" y="190" width="52" height="6" rx="3" fill="#E2E8F0"/>
  <rect x="264" y="190" width="42" height="6" rx="3" fill="#0D9488"/>
  <text x="320" y="196" font-family="system-ui, sans-serif" font-size="9" font-weight="600" fill="#0F172A">7.0</text>

  <rect x="248" y="212" width="120" height="20" rx="4" fill="#F0FDF4"/>
  <text x="308" y="225" font-family="system-ui, sans-serif" font-size="9" fill="#16A34A" text-anchor="middle">✓ Cải thiện so với tuần trước</text>
</svg>
