<svg xmlns="http://www.w3.org/2000/svg" viewBox="0 0 400 300" fill="none" role="img" aria-label="Progress dashboard wireframe">
  <rect width="400" height="300" fill="#F8FAFC"/>
  <rect x="16" y="16" width="368" height="72" rx="12" fill="#FFFFFF" stroke="#E2E8F0" stroke-width="2"/>
  <circle cx="60" cy="52" r="26" fill="none" stroke="#E2E8F0" stroke-width="6"/>
  <path d="M 60 26 A 26 26 0 1 1 34 52" fill="none" stroke="#0D9488" stroke-width="6" stroke-linecap="round"/>
  <rect x="104" y="32" width="140" height="12" rx="4" fill="#0F172A"/>
  <rect x="104" y="52" width="180" height="8" rx="3" fill="#94A3B8"/>
  <rect x="104" y="66" width="100" height="8" rx="3" fill="#94A3B8"/>
  <rect x="16" y="104" width="368" height="180" rx="12" fill="#FFFFFF" stroke="#E2E8F0" stroke-width="2"/>
  <rect x="28" y="120" width="80" height="10" rx="4" fill="#0F172A"/>
  <polyline points="32,250 80,230 128,240 176,210 224,200 272,170 320,180 368,150" fill="none" stroke="#0D9488" stroke-width="3" stroke-linecap="round" stroke-linejoin="round"/>
  <polyline points="32,260 80,255 128,240 176,235 224,220 272,210 320,200 368,185" fill="none" stroke="#EA580C" stroke-width="3" stroke-linecap="round" stroke-linejoin="round" stroke-dasharray="4 4"/>
  <circle cx="368" cy="150" r="5" fill="#0D9488"/>
  <circle cx="368" cy="185" r="5" fill="#EA580C"/>
  <line x1="28" y1="268" x2="372" y2="268" stroke="#E2E8F0" stroke-width="1"/>
</svg>
