<svg xmlns="http://www.w3.org/2000/svg" viewBox="0 0 400 300" fill="none" role="img" aria-label="Vocab SRS wireframe">
  <rect width="400" height="300" fill="#F8FAFC"/>
  <rect x="16" y="16" width="368" height="40" rx="8" fill="#E2E8F0"/>
  <rect x="28" y="28" width="120" height="16" rx="4" fill="#94A3B8"/>
  <rect x="280" y="24" width="92" height="24" rx="12" fill="#0D9488"/>
  <rect x="16" y="72" width="368" height="140" rx="12" fill="#FFFFFF" stroke="#E2E8F0" stroke-width="2"/>
  <rect x="40" y="96" width="200" height="28" rx="6" fill="#0D9488"/>
  <rect x="40" y="136" width="320" height="10" rx="4" fill="#CBD5E1"/>
  <rect x="40" y="154" width="280" height="10" rx="4" fill="#CBD5E1"/>
  <rect x="40" y="172" width="220" height="10" rx="4" fill="#CBD5E1"/>
  <rect x="16" y="228" width="88" height="56" rx="10" fill="#F1F5F9" stroke="#E2E8F0" stroke-width="2"/>
  <rect x="110" y="228" width="88" height="56" rx="10" fill="#F1F5F9" stroke="#E2E8F0" stroke-width="2"/>
  <rect x="204" y="228" width="88" height="56" rx="10" fill="#F1F5F9" stroke="#E2E8F0" stroke-width="2"/>
  <rect x="298" y="228" width="88" height="56" rx="10" fill="#0D9488"/>
</svg>
