<svg xmlns="http://www.w3.org/2000/svg" viewBox="0 0 400 300" fill="none" role="img" aria-label="Writing AI feedback wireframe">
  <rect width="400" height="300" fill="#F8FAFC"/>
  <rect x="16" y="16" width="180" height="268" rx="12" fill="#FFFFFF" stroke="#E2E8F0" stroke-width="2"/>
  <rect x="28" y="32" width="100" height="14" rx="4" fill="#0D9488"/>
  <rect x="28" y="56" width="156" height="8" rx="3" fill="#CBD5E1"/>
  <rect x="28" y="72" width="140" height="8" rx="3" fill="#CBD5E1"/>
  <rect x="28" y="88" width="150" height="8" rx="3" fill="#CBD5E1"/>
  <rect x="28" y="104" width="120" height="8" rx="3" fill="#CBD5E1"/>
  <rect x="28" y="128" width="156" height="8" rx="3" fill="#CBD5E1"/>
  <rect x="28" y="144" width="130" height="8" rx="3" fill="#CBD5E1"/>
  <rect x="28" y="160" width="156" height="8" rx="3" fill="#CBD5E1"/>
  <rect x="204" y="16" width="180" height="268" rx="12" fill="#FFFFFF" stroke="#E2E8F0" stroke-width="2"/>
  <rect x="216" y="32" width="120" height="14" rx="4" fill="#EA580C"/>
  <rect x="216" y="60" width="156" height="36" rx="8" fill="#FEF3C7" stroke="#F59E0B" stroke-width="1"/>
  <rect x="224" y="70" width="80" height="8" rx="3" fill="#92400E"/>
  <rect x="224" y="82" width="120" height="6" rx="3" fill="#B45309"/>
  <rect x="216" y="108" width="156" height="36" rx="8" fill="#DCFCE7" stroke="#15803D" stroke-width="1"/>
  <rect x="224" y="118" width="90" height="8" rx="3" fill="#14532D"/>
  <rect x="224" y="130" width="110" height="6" rx="3" fill="#166534"/>
  <rect x="216" y="156" width="156" height="36" rx="8" fill="#E0F2FE" stroke="#0284C7" stroke-width="1"/>
  <rect x="224" y="166" width="70" height="8" rx="3" fill="#075985"/>
  <rect x="224" y="178" width="130" height="6" rx="3" fill="#0369A1"/>
  <rect x="216" y="220" width="156" height="40" rx="10" fill="#0D9488"/>
  <rect x="248" y="234" width="92" height="12" rx="4" fill="#FFFFFF"/>
</svg>
