<svg xmlns="http://www.w3.org/2000/svg" viewBox="0 0 1200 630" role="img" aria-label="IELTS Coach">
  <title>IELTS Coach — Your AI study buddy for IELTS</title>
  <defs>
    <linearGradient id="bg" x1="0" y1="0" x2="1" y2="1">
      <stop offset="0%" stop-color="#dbeafe"/>
      <stop offset="100%" stop-color="#eff6ff"/>
    </linearGradient>
  </defs>
  <rect x="0" y="0" width="1200" height="630" fill="url(#bg)"/>
  <!-- decorative cards -->
  <g opacity="0.4">
    <rect x="80" y="120" width="220" height="140" rx="20" fill="#ffffff"/>
    <rect x="100" y="150" width="120" height="10" rx="4" fill="#3b82f6"/>
    <rect x="100" y="170" width="160" height="6" rx="3" fill="#94a3b8"/>
    <rect x="100" y="184" width="140" height="6" rx="3" fill="#94a3b8"/>
    <rect x="100" y="198" width="100" height="6" rx="3" fill="#94a3b8"/>
  </g>
  <g opacity="0.5">
    <rect x="900" y="380" width="220" height="140" rx="20" fill="#ffffff"/>
    <circle cx="950" cy="430" r="20" fill="#10b981"/>
    <rect x="980" y="420" width="120" height="8" rx="4" fill="#0f172a"/>
    <rect x="980" y="436" width="80" height="6" rx="3" fill="#94a3b8"/>
  </g>
  <!-- center: logo + text -->
  <g transform="translate(420 200)">
    <rect x="0" y="0" width="120" height="120" rx="26" fill="#3b82f6"/>
    <rect x="26" y="38" width="68" height="8" rx="4" fill="#ffffff" fill-opacity="0.95"/>
    <rect x="26" y="56" width="52" height="8" rx="4" fill="#ffffff" fill-opacity="0.85"/>
    <rect x="26" y="74" width="38" height="8" rx="4" fill="#ffffff" fill-opacity="0.75"/>
    <circle cx="86" cy="82" r="8" fill="#ffffff"/>
  </g>
  <text x="600" y="400" text-anchor="middle"
        font-family="'Be Vietnam Pro', system-ui, sans-serif"
        font-weight="800" font-size="64" fill="#0f172a">IELTS Coach</text>
  <text x="600" y="450" text-anchor="middle"
        font-family="'Be Vietnam Pro', system-ui, sans-serif"
        font-weight="500" font-size="28" fill="#475569">Your AI study buddy for IELTS</text>
</svg>
