<svg xmlns="http://www.w3.org/2000/svg" viewBox="0 0 128 128" fill="none" stroke="currentColor" stroke-width="3" stroke-linecap="round" stroke-linejoin="round" role="img" aria-hidden="true">
  <title>Trophy with checkmark</title>
  <path d="M42 26h44v26c0 12-10 22-22 22s-22-10-22-22V26Z" opacity="0.2" fill="currentColor" stroke="none"/>
  <path d="M42 26h44v26c0 12-10 22-22 22s-22-10-22-22V26Z"/>
  <path d="M42 36H30c0 12 6 20 14 22M86 36h12c0 12-6 20-14 22"/>
  <path d="M64 74v14"/>
  <path d="M48 96h32v8H48z" stroke-width="2.5"/>
  <path d="M54 46l8 8 14-16" stroke-width="3"/>
</svg>
